<svg width="235" height="235" xmlns="http://www.w3.org/2000/svg" preserveAspectRatio="xMidYMid meet">

 <g>
  <title>background</title>
  <rect fill="none" id="canvas_background" height="402" width="582" y="-1" x="-1"/>
 </g>
 <g>
  <title>Layer 1</title>
  <g id="svg_1" fill="#000000" transform="translate(0,235) scale(0.10000000149011612,-0.10000000149011612) ">
   <path fill="#087464" id="svg_2" d="m980,2183c-116,-20 -291,-97 -405,-178c-90,-65 -222,-208 -276,-301c-106,-181 -143,-333 -136,-554c4,-134 8,-156 46,-284c22,-76 41,-155 41,-175c0,-92 49,-159 131,-181c25,-7 62,-31 97,-63c115,-106 263,-185 432,-231c262,-72 580,-22 800,127c69,47 200,169 255,237c41,51 56,63 101,76c57,16 79,35 89,76c5,21 1,33 -19,53c-14,14 -26,31 -26,38c0,7 12,57 27,112c23,85 27,121 27,240c0,78 -5,167 -12,200c-66,304 -236,539 -504,692c-110,63 -217,99 -340,112c-94,11 -277,13 -328,4zm-227,-454c24,-11 57,-57 57,-78c0,-7 -11,-23 -24,-36c-22,-22 -28,-23 -55,-14c-40,14 -42,46 -3,51c53,6 37,78 -17,78c-79,0 -148,-84 -180,-219c-36,-153 -23,-235 42,-270c25,-13 104,-11 142,3c19,7 19,7 1,-8c-10,-8 -42,-20 -71,-27c-98,-22 -198,20 -236,99c-30,61 -24,177 14,254c36,73 93,137 141,159c46,21 151,25 189,8zm848,-25c41,-21 59,-68 59,-155l0,-71l56,51c49,45 61,51 99,51c67,0 98,-43 54,-74c-28,-19 -47,-11 -64,31c-16,38 -18,38 -84,-16c-65,-53 -69,-67 -24,-90c22,-11 49,-37 63,-60c56,-93 97,-147 130,-169l35,-24l-55,7c-107,14 -110,16 -194,169c-23,40 -39,22 -55,-59c-7,-36 -18,-65 -25,-65c-6,0 -27,3 -47,6l-35,6l33,167c37,182 39,257 8,291c-17,18 -17,20 -1,20c9,0 31,-7 47,-16zm-180,-130c34,-17 45,-31 59,-80c11,-36 10,-50 -6,-100c-36,-114 -130,-178 -223,-151c-63,18 -82,48 -82,129c0,111 46,181 140,214c38,13 68,10 112,-12zm-379,7c13,-5 36,-21 52,-36c27,-25 28,-29 24,-95c-6,-79 -38,-145 -90,-181c-42,-30 -137,-38 -173,-15c-65,43 -75,169 -19,248c50,70 140,104 206,79zm694,-433c27,-25 37,-44 42,-80l7,-47l55,46c61,50 87,63 131,63c56,0 66,-80 11,-88c-16,-2 -23,3 -28,22c-14,59 -38,56 -116,-17c-44,-40 -47,-53 -15,-62c34,-11 77,-56 98,-102c10,-23 42,-67 72,-98l53,-55l-38,0c-73,0 -143,53 -189,142c-11,22 -25,38 -32,35c-7,-2 -18,-28 -25,-59c-13,-54 -15,-56 -54,-62c-22,-4 -43,-4 -46,-1c-3,3 4,59 16,124c26,143 28,213 6,246c-15,23 -15,25 0,25c9,0 32,-15 52,-32zm-951,-18c73,-12 105,-41 105,-98c0,-41 -19,-74 -63,-111l-28,-23l33,-17c59,-29 72,-117 28,-189c-26,-42 -108,-82 -170,-82l-44,0l44,22c61,32 83,66 88,138c4,58 3,61 -32,96c-20,20 -35,37 -34,38c46,27 62,44 74,71c31,75 9,139 -53,151c-25,5 -34,2 -47,-17c-8,-13 -33,-112 -54,-219c-22,-107 -46,-212 -55,-232c-29,-68 -118,-97 -204,-66c-25,9 -34,19 -39,44c-9,47 -2,66 28,84c25,13 29,13 45,-2c16,-17 15,-19 -12,-48c-24,-25 -27,-34 -19,-48c18,-28 60,-27 79,1c21,32 58,181 85,346c21,123 22,135 7,146c-9,7 -14,15 -10,18c10,10 180,8 248,-3zm414,-5c96,-49 71,-252 -39,-314c-83,-47 -167,-31 -203,39c-22,43 -15,124 15,189c40,83 151,126 227,86zm369,-5c67,-41 77,-123 27,-226c-35,-72 -82,-104 -152,-104c-77,0 -101,13 -125,66c-25,57 -20,111 17,183c46,91 155,129 233,81zm-68,-440c-50,-43 -114,-70 -170,-70c-46,0 -161,30 -220,58l-45,20l195,2c134,1 206,5 230,14c56,22 58,18 10,-24z"/>
   <path fill="#087464" id="svg_3" d="m1301,1529c-11,-18 -25,-56 -31,-83c-30,-138 -22,-190 28,-184c21,2 32,14 52,53c21,43 25,64 25,145l0,95l-27,3c-22,3 -32,-3 -47,-29z"/>
   <path fill="#087464" id="svg_4" d="m952,1552c-21,-14 -53,-110 -59,-179c-9,-97 26,-143 71,-94c44,49 83,233 56,266c-13,16 -47,20 -68,7z"/>
   <path fill="#087464" id="svg_5" d="m1086,1088c-41,-63 -64,-272 -31,-284c44,-17 99,80 112,196c8,84 0,110 -37,110c-20,0 -34,-8 -44,-22z"/>
   <path fill="#087464" id="svg_6" d="m1452,1087c-39,-42 -68,-205 -46,-261c9,-24 50,-19 72,9c29,37 54,141 50,210c-3,56 -5,60 -28,63c-17,2 -34,-5 -48,-21z"/>
  </g>
 </g>
</svg>